<mxfile host="app.diagrams.net" modified="2022-08-19T00:11:46.560Z" agent="5.0 (Windows NT 10.0; Win64; x64) AppleWebKit/537.36 (KHTML, like Gecko) Chrome/104.0.5112.102 Safari/537.36" etag="z97dyM7GBdsvb_BuESah" version="20.2.0" type="github">
  <diagram id="Jknv59Zorflj6h-Gr6dy" name="PÃ¡gina-1">
    <mxGraphModel dx="868" dy="454" grid="1" gridSize="10" guides="1" tooltips="1" connect="1" arrows="1" fold="1" page="1" pageScale="1" pageWidth="827" pageHeight="1169" math="0" shadow="0">
      <root>
        <mxCell id="0" />
        <mxCell id="1" parent="0" />
        <mxCell id="EcgMuYfpALPD9OtjKv_g-14" style="edgeStyle=orthogonalEdgeStyle;rounded=0;orthogonalLoop=1;jettySize=auto;html=1;exitX=1;exitY=0.5;exitDx=0;exitDy=0;" edge="1" parent="1" source="EcgMuYfpALPD9OtjKv_g-1">
          <mxGeometry relative="1" as="geometry">
            <mxPoint x="450" y="500" as="targetPoint" />
          </mxGeometry>
        </mxCell>
        <mxCell id="EcgMuYfpALPD9OtjKv_g-1" value="Dispositivo" style="swimlane;strokeColor=#660000;" vertex="1" parent="1">
          <mxGeometry x="40" y="290" width="330" height="420" as="geometry" />
        </mxCell>
        <mxCell id="EcgMuYfpALPD9OtjKv_g-3" value="APP" style="swimlane;fillColor=#dae8fc;strokeColor=#6c8ebf;" vertex="1" parent="EcgMuYfpALPD9OtjKv_g-1">
          <mxGeometry x="10" y="30" width="310" height="380" as="geometry" />
        </mxCell>
        <mxCell id="EcgMuYfpALPD9OtjKv_g-11" style="edgeStyle=orthogonalEdgeStyle;rounded=0;orthogonalLoop=1;jettySize=auto;html=1;entryX=0.5;entryY=0;entryDx=0;entryDy=0;" edge="1" parent="EcgMuYfpALPD9OtjKv_g-3" source="EcgMuYfpALPD9OtjKv_g-4" target="EcgMuYfpALPD9OtjKv_g-8">
          <mxGeometry relative="1" as="geometry" />
        </mxCell>
        <mxCell id="EcgMuYfpALPD9OtjKv_g-4" value="Capa UI" style="swimlane;startSize=23;strokeColor=#000000;fillColor=#66FF66;swimlaneFillColor=default;" vertex="1" parent="EcgMuYfpALPD9OtjKv_g-3">
          <mxGeometry x="10" y="30" width="290" height="120" as="geometry" />
        </mxCell>
        <mxCell id="EcgMuYfpALPD9OtjKv_g-5" value="Elementos UI" style="rounded=0;whiteSpace=wrap;html=1;" vertex="1" parent="EcgMuYfpALPD9OtjKv_g-4">
          <mxGeometry x="70" y="40" width="160" height="15" as="geometry" />
        </mxCell>
        <mxCell id="EcgMuYfpALPD9OtjKv_g-6" value="Contenedores de estado" style="rounded=0;whiteSpace=wrap;html=1;" vertex="1" parent="EcgMuYfpALPD9OtjKv_g-4">
          <mxGeometry x="65" y="70" width="175" height="20" as="geometry" />
        </mxCell>
        <mxCell id="EcgMuYfpALPD9OtjKv_g-8" value="Capa de datos" style="swimlane;strokeColor=#000000;fillColor=#FFF2CC;" vertex="1" parent="EcgMuYfpALPD9OtjKv_g-3">
          <mxGeometry x="10" y="220" width="290" height="130" as="geometry" />
        </mxCell>
        <mxCell id="EcgMuYfpALPD9OtjKv_g-9" value="Repositories" style="rounded=0;whiteSpace=wrap;html=1;strokeColor=#000000;fillColor=#FFFFFF;" vertex="1" parent="EcgMuYfpALPD9OtjKv_g-8">
          <mxGeometry x="75" y="35" width="150" height="30" as="geometry" />
        </mxCell>
        <mxCell id="EcgMuYfpALPD9OtjKv_g-10" value="Fuentes de datos" style="rounded=0;whiteSpace=wrap;html=1;strokeColor=#000000;fillColor=#FFFFFF;" vertex="1" parent="EcgMuYfpALPD9OtjKv_g-8">
          <mxGeometry x="70" y="80" width="160" height="30" as="geometry" />
        </mxCell>
        <mxCell id="EcgMuYfpALPD9OtjKv_g-2" value="Firebase" style="swimlane;" vertex="1" parent="1">
          <mxGeometry x="450" y="290" width="300" height="420" as="geometry" />
        </mxCell>
        <mxCell id="EcgMuYfpALPD9OtjKv_g-12" value="Firestore" style="rounded=0;whiteSpace=wrap;html=1;strokeColor=#000000;fillColor=#FFFFFF;" vertex="1" parent="EcgMuYfpALPD9OtjKv_g-2">
          <mxGeometry x="90" y="170" width="120" height="60" as="geometry" />
        </mxCell>
      </root>
    </mxGraphModel>
  </diagram>
</mxfile>
